<?xml version="1.0" encoding="utf-8"?>
<!-- Generator: Adobe Illustrator 21.1.0, SVG Export Plug-In . SVG Version: 6.00 Build 0)  -->
<svg version="1.1" id="Capa_1" xmlns="http://www.w3.org/2000/svg" xmlns:xlink="http://www.w3.org/1999/xlink" x="0px" y="0px"
	 viewBox="0 0 512 512" style="enable-background:new 0 0 512 512;" xml:space="preserve">
<style type="text/css">
	.st0{fill:#A3AD6F;}
	.st1{fill:#FFFFFF;}
</style>
<g>
	<circle class="st0" cx="222.4" cy="186.6" r="21"/>
	<g>
		<g>
			<path class="st1" d="M233.7,192.2l-3-3c-0.8-0.8-2.1-0.8-3,0l-1.3,1.3c-0.6,0.6-1.6,0.6-2.2,0l-5.8-5.8c-0.6-0.6-0.6-1.6,0-2.2
				c0.2-0.2,0.8-0.8,1.3-1.3c0.8-0.8,0.8-2.1,0-3l-3-2.9c-0.8-0.8-2.1-0.8-2.9,0c-0.6,0.6-0.8,0.8-1.1,1.1c-2.9,2.9-2.9,7.7,0,10.6
				l9.2,9.2c2.9,2.9,7.7,2.9,10.6,0l1.1-1.1C234.5,194.4,234.5,193,233.7,192.2z M214.8,176.3c0.3-0.3,0.7-0.3,1,0l3,2.9
				c0.3,0.3,0.3,0.7,0,1l-0.5,0.5l-3.9-3.9L214.8,176.3z M222.9,195.3l-9.2-9.2c-2.3-2.3-2.4-5.8-0.4-8.3l3.9,3.9
				c-1,1.2-1,2.9,0.1,4.1l5.8,5.8c0,0,0,0,0,0c1.1,1.1,2.9,1.2,4.1,0.1l3.9,3.9C228.8,197.7,225.2,197.6,222.9,195.3z M232.7,194.2
				l-0.5,0.5l-3.9-3.9l0.5-0.5c0.3-0.3,0.7-0.3,1,0l3,3C233,193.5,233,193.9,232.7,194.2z"/>
		</g>
	</g>
</g>
</svg>
