<?xml version="1.0" encoding="utf-8"?>
<!-- Generator: Adobe Illustrator 21.1.0, SVG Export Plug-In . SVG Version: 6.00 Build 0)  -->
<svg version="1.1" id="Capa_1" xmlns="http://www.w3.org/2000/svg" xmlns:xlink="http://www.w3.org/1999/xlink" x="0px" y="0px"
	 viewBox="0 0 512 512" style="enable-background:new 0 0 512 512;" xml:space="preserve">
<style type="text/css">
	.st0{fill:#A3AD6F;}
	.st1{fill:#FFFFFF;}
</style>
<g>
	<circle class="st0" cx="339.3" cy="209.4" r="21"/>
	<g>
		<g>
			<g>
				<path class="st1" d="M350.1,218.4l-1.4-18c0-0.2-0.2-0.3-0.4-0.3h-14.4h-3.6c-0.2,0-0.3,0.1-0.4,0.3l-1.4,18c0,0,0,0,0,0
					c0,0,0,0,0,0c0,0,0,0,0,0c0,0,0,0,0,0c0,0,0,0,0,0c0,0,0,0,0,0c0,0,0,0,0,0c0,0,0,0,0,0c0,0,0,0,0,0c0,0,0,0,0,0c0,0,0,0,0,0
					c0,0,0,0,0,0c0,0,0,0,0,0c0,0,0,0,0,0c0,0,0,0,0,0c0,0,0,0,0,0c0,0,0,0,0,0c0,0,0,0,0,0c0,0,0,0,0,0c0,0,0,0,0,0c0,0,0,0,0,0
					c0,0,0,0,0,0c0,0,0,0,0,0c0,0,0,0,0,0c0,0,0,0,0,0c0,0,0,0,0,0c0,0,0,0,0,0c0,0,0,0,0,0c0,0,0,0,0,0c0,0,0,0,0,0c0,0,0,0,0,0
					c0,0,0,0,0,0c0,0,0,0,0,0c0,0,0,0,0,0h6.5h14.4c0.1,0,0.2,0,0.3-0.1C350.1,218.6,350.1,218.5,350.1,218.4z M332.1,215.7l2.4,2.4
					h-4.7L332.1,215.7z M332.5,215v-14.3h1.1l1.3,16.7L332.5,215z M330.6,200.7h1.1V215l-2.4,2.4L330.6,200.7z M335.7,218l-1.4-17.3
					H348l1.4,17.3H335.7z"/>
				<path class="st1" d="M345.1,202.9c-0.2,0-0.4,0.2-0.4,0.4v2.2c0,2.2-1.6,4-3.6,4c-2,0-3.6-1.8-3.6-4v-2.2c0-0.2-0.2-0.4-0.4-0.4
					s-0.4,0.2-0.4,0.4v2.2c0,2.6,1.9,4.7,4.3,4.7s4.3-2.1,4.3-4.7v-2.2C345.4,203,345.3,202.9,345.1,202.9z"/>
				<path class="st1" d="M337.9,203.2c0,0.2,0.2,0.4,0.4,0.4s0.4-0.2,0.4-0.4c0-0.8-0.6-1.4-1.4-1.4c-0.8,0-1.4,0.6-1.4,1.4
					c0,0.2,0.2,0.4,0.4,0.4s0.4-0.2,0.4-0.4c0-0.4,0.3-0.7,0.7-0.7C337.5,202.5,337.9,202.9,337.9,203.2z"/>
				<path class="st1" d="M345.1,201.8c-0.8,0-1.4,0.6-1.4,1.4c0,0.2,0.2,0.4,0.4,0.4s0.4-0.2,0.4-0.4c0-0.4,0.3-0.7,0.7-0.7
					c0.4,0,0.7,0.3,0.7,0.7c0,0.2,0.2,0.4,0.4,0.4s0.4-0.2,0.4-0.4C346.5,202.5,345.9,201.8,345.1,201.8z"/>
			</g>
		</g>
	</g>
</g>
</svg>
